<svg version="1.1" xmlns="http://www.w3.org/2000/svg" xmlns:xlink="http://www.w3.org/1999/xlink" width="600"
    height="400">
    <defs />
    <g id="expressions-bf36783d">
        <g id="sketch-bf36783d">
            <title>Expression 1</title>
            <path fill="#388c46" stroke="none" paint-order="stroke fill markers" d="" fill-opacity="0.4" />
            <g>
                <path fill="none" stroke="#388c46" class="dcg-svg-curve" paint-order="fill stroke markers"
                    d=" M -2.842170943040401e-14 180.09944379422316 L -2.842170943040401e-14 180.09944379422316 L 32.958984375 181.9229774662806 L 61.23046874999997 183.74181860116772 L 85.54687499999997 185.56052621387394 L 106.49414062499997 187.3821416202758 L 124.51171874999997 189.20415791355182 L 140.03906249999997 191.03041193459896 L 153.51562499999997 192.8756950146574 L 165.08789062499997 194.72194243502898 L 175.04882812499997 196.57411286373602 L 183.69140624999997 198.44930549136603 L 191.16210937499997 200.3440612680775 L 197.607421875 202.25797033867266 L 203.17382812499997 204.1967413299153 L 208.0078125 206.1769710679921 L 212.25585937499997 208.23361991458145 L 215.91796875 210.34003809479898 L 219.14062499999994 212.55678115698598 L 222.07031249999997 215.0002097623435 L 224.560546875 217.55422521682493 L 226.611328125 220.15816408211617 L 228.36914062499997 222.9478702127332 L 229.83398437499997 225.89528124334458 L 231.00585937499997 228.91360133377108 L 232.03124999999997 232.3629914101183 L 232.91015625 236.38705777370973 L 233.64257812499997 241.21546685884312 L 234.228515625 247.2497776593228 L 234.66796875 255.29136030631 L 234.9609375 267.3275635180419 L 235.10742187499997 290.62980225414174 L 235.10806866273126 405.5"
                    stroke-linecap="round" stroke-linejoin="round" stroke-miterlimit="10" stroke-width="1"
                    stroke-opacity="0.9" stroke-dasharray="" />
            </g>
            <g>
                <path fill="none" stroke="#388c46" class="dcg-svg-curve" paint-order="fill stroke markers"
                    d=" M 235.39173437676035 405.5 L 235.39173437676035 405.5 L 235.40039062499997 261.9234309900721 L 235.83984375 250.2054564815313 L 236.42578125 242.9209856614382 L 237.15820312499997 237.50340705141608 L 238.037109375 233.1523233110087 L 239.06249999999997 229.50191929341068 L 240.23437499999997 226.3509844515173 L 241.69921874999997 223.30340235774293 L 243.31054687499997 220.65384922879684 L 245.21484374999997 218.12631275392926 L 247.55859375 215.60262400225918 L 250.34179687499997 213.1622949921104 L 253.56445312499997 210.84185126222283 L 257.08007812499994 208.73400690455102 L 261.03515625 206.73340840986396 L 265.57617187499994 204.78298990918626 L 270.703125 202.9036955277959 L 276.5625 201.0625174793131 L 283.30078125 199.24294676529092 L 291.064453125 197.43859351154188 L 300 195.6490207845306 L 310.25390625 193.8769802851547 L 321.97265625 192.12661570377674 L 335.595703125 190.36708852458582 L 351.26953125 188.6165334378473 L 369.287109375 186.8751199781353 L 390.087890625 185.13464555451912 L 414.111328125 183.39434093078242 L 441.796875 181.65767850761932 L 473.73046875 179.92276283807735 L 510.64453124999994 178.1858256078447 L 553.125 176.45437972189205 L 600 174.7940529690011"
                    stroke-linecap="round" stroke-linejoin="round" stroke-miterlimit="10" stroke-width="1"
                    stroke-opacity="0.9" stroke-dasharray="" />
            </g>
        </g>
        <g id="sketch-bf36783d">
            <title>Expression 2</title>
            <path fill="#388c46" stroke="none" paint-order="stroke fill markers" d="" fill-opacity="0.4" />
            <g>
                <path fill="none" stroke="#388c46" class="dcg-svg-curve" paint-order="fill stroke markers"
                    d=" M -2.842170943040401e-14 118.14800045993951 L -2.842170943040401e-14 118.14800045993951 L 23.73046874999997 120.71716356126612 L 45.11718749999997 123.29283554025977 L 64.306640625 125.86374968059897 L 81.59179687499997 128.4399523895451 L 97.26562499999997 131.0402606431981 L 111.328125 133.63836433809593 L 124.07226562499997 136.2616837044088 L 135.49804687499997 138.88342650042492 L 145.8984375 141.5457525005526 L 155.27343749999997 144.22629449489864 L 163.76953124999997 146.94269393896815 L 171.38671875 149.66855618128923 L 178.27148437499997 152.42863763898077 L 184.5703125 155.2638945929567 L 190.28320312499997 158.15928798264434 L 195.55664062499997 161.1800773902771 L 200.39062499999997 164.3260824201374 L 204.78515625 167.59194615494604 L 208.88671874999997 171.09850842407047 L 212.548828125 174.72761707556677 L 215.77148437499997 178.4457818060605 L 218.55468749999997 182.19367350765526 L 221.04492187499997 186.1245149745444 L 223.24218749999997 190.21952549860623 L 225.14648437499997 194.4345442778943 L 226.904296875 199.1103465289288 L 228.36914062499997 203.84485329695957 L 229.68749999999997 209.08107979250167 L 230.859375 214.93391287191653 L 231.88476562499997 221.56048694315263 L 232.763671875 229.18158437036954 L 233.49609374999997 238.1150801704001 L 234.08203124999997 248.821212962175 L 234.521484375 261.91020163979766 L 234.814453125 277.6850744671217 L 234.9609375 292.60423990757704 L 235.10742187499997 339.20871737977654 L 235.1076085047313 405.5"
                    stroke-linecap="round" stroke-linejoin="round" stroke-miterlimit="10" stroke-width="1"
                    stroke-opacity="0.9" stroke-dasharray="" />
            </g>
            <g>
                <path fill="none" stroke="#388c46" class="dcg-svg-curve" paint-order="fill stroke markers"
                    d=" M 235.39666155988402 405.5 L 235.39666155988402 405.5 L 235.40039062499997 281.7959748516374 L 235.83984375 258.3600258345557 L 236.42578125 243.79108419436957 L 237.15820312499997 232.9559269743253 L 238.037109375 224.25375949351056 L 239.06249999999997 216.9529514583145 L 240.23437499999997 210.65108177452777 L 241.55273437499997 205.10069562388438 L 243.01757812499997 200.13777733688096 L 244.775390625 195.27791613656467 L 246.6796875 190.92582799427828 L 248.87695312499997 186.71928369133337 L 251.22070312499997 182.91703930531145 L 253.85742187499997 179.25199775957077 L 256.787109375 175.741650210177 L 260.15625 172.24955302071945 L 263.96484375 168.82831934477704 L 268.212890625 165.50922152870692 L 272.900390625 162.3090368008996 L 277.880859375 159.31766784415603 L 283.30078125 156.43500640207503 L 289.306640625 153.5974291156976 L 295.8984375 150.824503169846 L 303.076171875 148.12827573393304 L 310.986328125 145.46876469561408 L 319.62890625 142.86306505505343 L 329.150390625 140.28452621059435 L 339.697265625 137.71696323252505 L 351.26953125 135.18217974718777 L 364.16015625 132.64034858736787 L 378.369140625 130.1174656075354 L 394.04296874999994 127.60975895139376 L 411.328125 125.11627412718256 L 430.517578125 122.61980519795414 L 451.7578125 120.12769895777153 L 475.1953125 117.64683151177167 L 501.123046875 115.17009949910741 L 529.833984375 112.6947680765866 L 561.62109375 110.22112860491221 L 596.77734375 107.75146063199621 L 600 107.53721880949533"
                    stroke-linecap="round" stroke-linejoin="round" stroke-miterlimit="10" stroke-width="1"
                    stroke-opacity="0.9" stroke-dasharray="" />
            </g>
        </g>
                <g id="sketch-bf36783d">
            <title>Expression 3</title>
            <path fill="#388c46" stroke="none" paint-order="stroke fill markers" d="" fill-opacity="0.4" />
            <g>
                <path fill="none" stroke="#388c46" class="dcg-svg-curve" paint-order="fill stroke markers"
                    d=" M -2.842170943040401e-14 28.393896468321287 L -2.842170943040401e-14 28.393896468321287 L 19.62890624999997 31.551570743026815 L 37.64648437499997 34.7142518053212 L 54.19921875 37.885250559716695 L 69.43359374999997 41.071340563766825 L 83.49609374999997 44.28389971818632 L 96.38671874999997 47.50209246599613 L 108.25195312499999 50.7403910184139 L 119.23828124999997 54.02110513298396 L 129.345703125 57.32659492749514 L 138.72070312499997 60.68805094398229 L 147.36328124999997 64.09009855820798 L 155.27343749999997 67.51133752075998 L 162.59765625 70.99592605238874 L 169.482421875 74.60845582831175 L 175.78124999999997 78.26218577251021 L 181.64062499999997 82.02740649539132 L 187.20703124999994 86.00777238020044 L 192.33398437499997 90.10626395941651 L 197.16796874999997 94.44772664543407 L 201.56249999999997 98.90396518374713 L 205.51757812499997 103.44478740155881 L 209.03320312499994 108.02239954248888 L 212.10937499999997 112.56521406233345 L 214.892578125 117.23238809082694 L 217.529296875 122.28839488233318 L 219.87304687499997 127.4641518270355 L 222.07031249999997 133.09619437268225 L 223.97460937499997 138.8042163261287 L 225.73242187499997 145.01411641058326 L 227.34374999999997 151.82568186829496 L 228.80859374999997 159.37284910423415 L 230.12695312499997 167.841890938139 L 231.29882812499997 177.50403461724383 L 232.32421874999997 188.77935077489744 L 233.05664062499997 199.72695702824262 L 233.78906249999997 215.49135919051224 L 234.375 236.25038662801356 L 234.66796875 253.96964600458176 L 234.9609375 290.0782556397775 L 235.10742187499997 359.98497184807684 L 235.10750730058575 405.5"
                    stroke-linecap="round" stroke-linejoin="round" stroke-miterlimit="10" stroke-width="1"
                    stroke-opacity="0.9" stroke-dasharray="" />
            </g>
            <g>
                <path fill="none" stroke="#388c46" class="dcg-svg-curve" paint-order="fill stroke markers"
                    d=" M 235.39774521236444 405.5 L 235.39774521236444 405.5 L 235.40039062499997 273.86585805586816 L 235.83984375 238.7119345302456 L 236.42578125 216.85852206996637 L 237.15820312499997 200.60578623989997 L 238.037109375 187.55253501867784 L 239.06249999999997 176.60132296588375 L 240.23437499999997 167.14851844020367 L 241.55273437499997 158.8229392142386 L 243.01757812499997 151.37856178373346 L 244.62890625 144.64325083281784 L 246.38671875 138.49152653065107 L 248.4375 132.4279060056009 L 250.63476562499997 126.89133753718944 L 252.978515625 121.79132718904303 L 255.61523437499997 116.79969052043936 L 258.544921875 111.95720058620175 L 261.767578125 107.28575471349963 L 265.28320312499994 102.79481163072752 L 269.09179687499994 98.48587866209216 L 273.33984375 94.21640183185461 L 278.173828125 89.9009929420727 L 283.447265625 85.7144134756227 L 289.01367187499994 81.76446434915809 L 295.01953125 77.93640593594452 L 301.318359375 74.31380642643975 L 308.203125 70.72914114472715 L 315.52734375 67.26893899325287 L 323.4375 63.86947974019057 L 331.93359375 60.54192811740205 L 341.162109375 57.24340782712585 L 351.12304687499994 53.99088324769687 L 361.81640625 50.796458772897125 L 373.388671875 47.63003959473684 L 385.986328125 44.471232956129114 L 399.609375 41.339391490600974 L 414.404296875 38.21934230982478 L 430.517578125 35.10160357534323 L 447.94921875 32.005973609526336 L 466.845703125 28.924465357944428 L 487.353515625 25.852511135570126 L 509.61914062499994 22.788109081027585 L 533.7890625 19.731137795264203 L 560.15625 16.66647741570688 L 588.720703125 13.615192526036623 L 600 12.477723992654973"
                    stroke-linecap="round" stroke-linejoin="round" stroke-miterlimit="10" stroke-width="1"
                    stroke-opacity="0.9" stroke-dasharray="" />
            </g>
        </g>
    </g>
</svg>